<svg width="251.62939927184465" height="304.91562500000003" viewBox="0 0 390.99999999999994 473.79999999999995" class="looka-1j8o68f"><defs id="SvgjsDefs1013"></defs><g id="SvgjsG1014" featurekey="rootContainer" transform="matrix(1.15,0,0,1.15,-5.75,0)" fill="#7098da"><path xmlns="http://www.w3.org/2000/svg" fill-rule="evenodd" d="M5,65 L175,0 L345, 65 L175, 10 z M5,332 L175,412 L345,327 L175, 402 z"></path></g><g id="SvgjsG1015" featurekey="symbolFeature-0" transform="matrix(1.7315161457279153,0,0,1.7315161457279153,109.42419601620918,99.34241927136043)" fill="#6eb6ff"><g xmlns="http://www.w3.org/2000/svg"><path d="M68.699,37.353c-1.475,4.349-1.168,9.011,0.864,13.129l1.824-0.9c-1.791-3.631-2.063-7.741-0.762-11.575   c1.3-3.834,4.016-6.932,7.646-8.723l-0.9-1.824C73.254,29.491,70.174,33.004,68.699,37.353z"></path><path d="M73.49,36.358c-1.477,3.765-1.4,7.881,0.219,11.587l1.864-0.815c-1.4-3.208-1.467-6.77-0.189-10.028   c1.279-3.26,3.75-5.825,6.96-7.225l-0.815-1.866C77.822,29.63,74.967,32.594,73.49,36.358z"></path><path d="M77.849,45.392l1.912-0.695c-2.091-5.75,0.885-12.131,6.637-14.223l-0.695-1.912   C78.896,31.037,75.373,38.587,77.849,45.392z"></path><path d="M81.987,42.815l1.965-0.527c-1.305-4.877,1.599-9.908,6.475-11.215L89.9,29.108C83.94,30.705,80.39,36.854,81.987,42.815z"></path><path d="M80.548,60.296l1.067-1.733c-8.818-5.437-20.33-2.87-26.068,5.646c-0.641-0.723-1.325-1.405-2.057-2.036   c5.667-8.161,16.765-10.771,25.524-5.712l1.017-1.762c-4.042-2.334-8.534-3.17-12.855-2.722   c-4.461-8.353-1.326-18.785,7.015-23.285l-0.966-1.79c-9.118,4.919-12.652,16.171-8.146,25.399   c-0.946,0.194-1.879,0.445-2.791,0.764c-4.233-8.989-0.943-19.904,7.814-24.959l-1.017-1.762c-3.946,2.279-6.974,5.687-8.795,9.771   c-9.459-0.318-16.921-8.245-16.647-17.717l-2.035-0.058c-0.297,10.352,7.676,19.037,17.915,19.753   c-0.135,0.406-0.281,0.807-0.393,1.223c-0.14,0.523-0.241,1.049-0.341,1.576c-9.897-0.832-17.7-9.139-17.7-19.247h-2.035   c0,4.667,1.521,8.975,4.07,12.493c-5.001,8.04-15.607,10.542-23.673,5.567l-1.067,1.733c3.143,1.938,6.632,2.861,10.079,2.861   c6.223,0,12.307-3.016,15.999-8.497c0.638,0.719,1.319,1.398,2.047,2.025c-5.668,8.159-16.769,10.766-25.524,5.713l-1.017,1.762   c3.356,1.937,7.024,2.857,10.645,2.857c0.742,0,1.48-0.049,2.215-0.125c4.453,8.351,1.318,18.776-7.02,23.274l0.966,1.79   c9.113-4.916,12.648-16.159,8.153-25.383c0.947-0.194,1.878-0.454,2.791-0.774c1.947,4.127,2.38,8.759,1.185,13.217   c-1.336,4.986-4.534,9.155-9.006,11.736l1.017,1.762c3.946-2.278,6.974-5.687,8.795-9.77c4.57,0.152,8.813,2.062,11.954,5.39   c3.159,3.347,4.826,7.725,4.693,12.325l2.035,0.06c0.148-5.145-1.716-10.039-5.249-13.782c-3.349-3.55-7.825-5.637-12.666-5.973   c0.135-0.406,0.281-0.806,0.392-1.223c0.14-0.523,0.241-1.049,0.341-1.576c9.897,0.832,17.7,9.139,17.7,19.247h2.035   c0-4.667-1.521-8.975-4.07-12.493C61.877,57.822,72.481,55.322,80.548,60.296z M39.611,46.175c3.329-1.533,6.289-3.931,8.509-7.093   c2.991,2.116,6.54,3.485,10.386,3.828c-0.348,3.741,0.287,7.486,1.887,10.92c-3.329,1.533-6.29,3.925-8.511,7.087   c-2.991-2.116-6.54-3.486-10.387-3.829C41.842,53.35,41.208,49.608,39.611,46.175z"></path><path d="M82.077,64.126l1.131-1.693c-7.882-5.264-18.58-3.133-23.844,4.75l1.693,1.131c2.248-3.367,5.673-5.657,9.643-6.448   C74.67,61.074,78.711,61.877,82.077,64.126z"></path><path d="M83.598,67.948l1.208-1.637c-3.253-2.401-7.25-3.391-11.248-2.789c-3.999,0.603-7.524,2.728-9.925,5.982l1.637,1.208   c2.078-2.817,5.129-4.656,8.591-5.178C77.324,65.014,80.782,65.868,83.598,67.948z"></path><path d="M85.109,71.757l1.307-1.558c-5.547-4.659-13.849-3.932-18.502,1.615l1.558,1.307c1.907-2.27,4.582-3.663,7.536-3.92   C79.959,68.944,82.838,69.851,85.109,71.757z"></path><path d="M72.216,74.108l1.439,1.439c3.57-3.569,9.377-3.571,12.948,0l1.439-1.439C83.679,69.746,76.581,69.744,72.216,74.108z"></path><path d="M39.801,66.701l-0.133,2.031c4.041,0.263,7.735,2.084,10.406,5.128c2.67,3.042,3.995,6.943,3.731,10.982l2.031,0.133   c0.299-4.582-1.204-9.006-4.232-12.458C48.575,69.065,44.383,67,39.801,66.701z"></path><path d="M39.926,71.558l-0.229,2.023c7.181,0.808,12.366,7.308,11.557,14.489l2.023,0.229   C54.211,80.002,48.222,72.492,39.926,71.558z"></path><path d="M40.065,76.421l-0.354,2.003c2.92,0.516,5.463,2.137,7.163,4.566c1.7,2.428,2.352,5.374,1.837,8.293l2.003,0.354   c0.61-3.454-0.162-6.94-2.173-9.814C46.53,78.95,43.52,77.03,40.065,76.421z"></path><path d="M40.229,81.294l-0.527,1.965c4.876,1.307,7.78,6.338,6.475,11.215L48.143,95C49.739,89.04,46.189,82.891,40.229,81.294z"></path><path d="M31.302,62.646c1.474-4.349,1.167-9.011-0.865-13.128l-1.824,0.9c1.791,3.63,2.063,7.741,0.762,11.574   c-1.301,3.834-4.016,6.932-7.646,8.724l0.9,1.824C26.746,70.509,29.826,66.995,31.302,62.646z"></path><path d="M26.291,52.054l-1.864,0.815c2.89,6.623-0.146,14.363-6.77,17.255l0.815,1.864C26.123,68.647,29.632,59.706,26.291,52.054z   "></path><path d="M22.151,54.607l-1.912,0.695c2.091,5.75-0.885,12.131-6.637,14.223l0.695,1.912C21.104,68.962,24.627,61.412,22.151,54.607   z"></path><path d="M18.013,57.185l-1.965,0.527c0.633,2.363,0.308,4.83-0.915,6.949c-1.223,2.117-3.197,3.632-5.56,4.265l0.527,1.965   C16.06,69.295,19.61,63.146,18.013,57.185z"></path><path d="M17.923,35.873l-1.131,1.693c2.927,1.954,6.241,2.889,9.521,2.889c5.556,0,11.013-2.682,14.323-7.638l-1.693-1.131   C34.303,38.637,24.87,40.514,17.923,35.873z"></path><path d="M16.402,32.052l-1.208,1.637c2.632,1.941,5.746,2.961,8.957,2.961c0.76,0,1.525-0.058,2.29-0.173   c4-0.603,7.524-2.727,9.925-5.982l-1.637-1.208c-2.078,2.818-5.129,4.657-8.591,5.178C22.676,34.991,19.218,34.131,16.402,32.052z"></path><path d="M14.891,28.242L13.583,29.8c2.456,2.063,5.452,3.069,8.434,3.069c3.75,0,7.475-1.594,10.068-4.683l-1.558-1.307   C26.593,31.563,19.58,32.174,14.891,28.242z"></path><path d="M27.784,25.891l-1.439-1.439c-3.572,3.572-9.379,3.57-12.948,0l-1.439,1.439c2.182,2.182,5.047,3.273,7.912,3.273   C22.737,29.163,25.602,28.072,27.784,25.891z"></path><path d="M60.199,33.299l0.133-2.031c-4.041-0.263-7.735-2.084-10.406-5.128c-2.67-3.043-3.995-6.944-3.731-10.983l-2.031-0.133   c-0.299,4.582,1.204,9.007,4.232,12.459C51.425,30.935,55.617,33,60.199,33.299z"></path><path d="M60.074,28.442l0.229-2.023C53.121,25.61,47.936,19.11,48.745,11.93l-2.023-0.229   C45.789,19.997,51.778,27.507,60.074,28.442z"></path><path d="M59.935,23.578l0.354-2.003c-2.92-0.516-5.463-2.137-7.163-4.565c-1.7-2.429-2.352-5.374-1.837-8.294l-2.003-0.354   C48.025,15.493,52.803,22.319,59.935,23.578z"></path><path d="M59.771,18.705l0.527-1.965c-4.876-1.306-7.78-6.337-6.475-11.214L51.857,5C50.261,10.961,53.811,17.109,59.771,18.705z"></path></g></g><g id="SvgjsG1016" featurekey="nameFeature-0" transform="matrix(1.9056123080542726,0,0,1.9056123080542726,21,276.49560749450893)" fill="#7098da"><path d="M5.48 40.24 c-3.04 0 -5.48 -2.48 -5.48 -5.48 l0 -4.36 l3.88 0 l0 4.36 c0 0.88 0.72 1.6 1.6 1.6 s1.56 -0.72 1.56 -1.6 l0 -3.8 l-7.04 -9.72 l0 -4.96 c0 -3.04 2.44 -5.52 5.48 -5.52 c3 0 5.44 2.48 5.44 5.52 l0 4.32 l-3.88 0 l0 -4.32 c0 -0.92 -0.68 -1.6 -1.56 -1.6 s-1.6 0.68 -1.6 1.6 l0 3.64 l7.04 9.72 l0 5.12 c0 3 -2.44 5.48 -5.44 5.48 z M27.548000000000002 11.36 l0 3.84 l-4.76 0 l0 24.84 l-3.84 0 l0 -24.84 l-5.24 0 l0 -3.84 l13.84 0 z M35.816 40.04 c-3 0 -5.4 -2.44 -5.4 -5.4 l0 -17.96 c0 -2.96 2.4 -5.36 5.4 -5.36 c2.96 0 5.36 2.4 5.36 5.36 l0 17.96 c0 2.96 -2.4 5.4 -5.36 5.4 z M35.816 15.120000000000001 c-0.88 0 -1.56 0.72 -1.56 1.56 l0 17.96 c0 0.88 0.68 1.56 1.56 1.56 c0.84 0 1.56 -0.68 1.56 -1.56 l0 -17.96 c0 -0.84 -0.72 -1.56 -1.56 -1.56 z M50.564 39.92 c-2.96 0 -5.36 -2.4 -5.36 -5.36 l0 -17.76 c0 -2.96 2.4 -5.36 5.36 -5.36 s5.36 2.4 5.36 5.36 l0 1.6 l-3.8 0 l0 -1.6 c0 -0.84 -0.72 -1.56 -1.56 -1.56 s-1.56 0.72 -1.56 1.56 l0 17.76 c0 0.84 0.72 1.56 1.56 1.56 s1.56 -0.72 1.56 -1.56 l0 -2.56 l3.8 0 l0 2.56 c0 2.96 -2.4 5.36 -5.36 5.36 z M68.472 39.84 l-4.2 -15.76 l-0.6 1 l0 14.88 l-3.72 0 l0 -28.52 l3.72 0 l0 6.2 l2.48 -6.2 l4.6 0 l-3.8 8.24 l5.4 20.16 l-3.88 0 z M98.008 11.36 l6.68 0 l0 28.56 l-3.76 0 l0 -22.6 l-3.56 22.68 l-1.48 0 l-0.36 -0.08 l-0.32 0.08 l-1.48 0 l-3.52 -22.68 l0 22.6 l-3.8 0 l0 -28.56 l6.72 0 l2.44 16.16 z M118.516 40 l-1.44 -9.88 l-4.04 0 l-1.32 9.88 l-3.84 0 l4.32 -28.6 l5.16 0 l5 28.6 l-3.84 0 z M113.55600000000001 26.32 l2.96 0 l-1.52 -10.4 z M136.784 40.08 l-4.08 0 l-2.2 -6.04 l-0.88 0 l0 6.04 l-3.8 0 l0 -28.64 l5.96 0 c2.64 0 4.76 2.12 4.76 4.76 l0 13.08 c0 1.72 -0.88 3.2 -2.24 4.04 z M129.624 15.239999999999998 l0 15 l2.16 0 c0.52 0 0.96 -0.44 0.96 -0.96 l0 -13.08 c0 -0.52 -0.44 -0.96 -0.96 -0.96 l-2.16 0 z M149.33200000000002 39.84 l-4.2 -15.76 l-0.6 1 l0 14.88 l-3.72 0 l0 -28.52 l3.72 0 l0 6.2 l2.48 -6.2 l4.6 0 l-3.8 8.24 l5.4 20.16 l-3.88 0 z M165.76 24.92 l-5.52 0 l0 11.28 l5.56 0 l0 3.8 l-9.36 0 l0 -28.56 l9.36 0 l0 3.8 l-5.56 0 l0 5.88 l5.52 0 l0 3.8 z M183.668 11.36 l0 3.84 l-4.76 0 l0 24.84 l-3.84 0 l0 -24.84 l-5.24 0 l0 -3.84 l13.84 0 z"></path></g></svg>